<svg width="350" height="286" viewBox="0 0 350 286" fill="none" xmlns="http://www.w3.org/2000/svg">
<path d="M294.819 67.1727H261.505V48.945C261.505 47.4325 262.644 46.2163 264.042 46.2163H294.833C296.231 46.2163 297.356 47.4481 297.356 48.945V64.444C297.341 65.9408 296.217 67.1727 294.819 67.1727Z" fill="#FEFEFF"/>
<path d="M261.506 62.838L261.477 72.1005L268.785 62.8536L261.506 62.838Z" fill="#FEFEFF"/>
<path d="M284.729 56.4305C284.729 57.3973 285.449 58.177 286.343 58.177C287.237 58.177 287.957 57.3973 287.957 56.4305C287.957 55.4638 287.237 54.6841 286.343 54.6841C285.464 54.6841 284.729 55.4638 284.729 56.4305Z" fill="#3F51B5"/>
<path d="M277.809 56.3983C277.809 57.3651 278.53 58.1448 279.424 58.1448C280.318 58.1448 281.038 57.3651 281.038 56.3983C281.038 55.4315 280.318 54.6519 279.424 54.6519C278.545 54.6674 277.809 55.4315 277.809 56.3983Z" fill="#3F51B5"/>
<path d="M270.89 56.3825C270.89 57.3491 271.611 58.1285 272.504 58.1285C273.398 58.1285 274.119 57.3491 274.119 56.3825C274.119 55.416 273.398 54.6365 272.504 54.6365C271.611 54.6365 270.89 55.416 270.89 56.3825Z" fill="#3F51B5"/>
<path d="M117.599 29.0801H175.562C176.557 29.0801 177.364 28.2069 177.364 27.131V1.94907C177.364 0.873181 176.557 0 175.562 0H117.599C116.604 0 115.797 0.873181 115.797 1.94907V27.131C115.797 28.2069 116.604 29.0801 117.599 29.0801Z" fill="#3F51B5"/>
<path d="M170.589 25.0416V36.6739L159.835 25.0416H170.589Z" fill="#3F51B5"/>
<path d="M125.6 7.32849H167.548" stroke="white" stroke-width="0.8349" stroke-miterlimit="10" stroke-linecap="round" stroke-linejoin="round"/>
<path d="M125.6 13.6119H143.172" stroke="white" stroke-width="0.8349" stroke-miterlimit="10" stroke-linecap="round" stroke-linejoin="round"/>
<path d="M125.6 20.769H157.572" stroke="white" stroke-width="0.8349" stroke-miterlimit="10" stroke-linecap="round" stroke-linejoin="round"/>
<path d="M264.705 208.269C264.705 208.269 280.432 198.539 274.19 164.517" stroke="#000103" stroke-width="1.0385" stroke-miterlimit="10"/>
<path d="M273.83 105.296H266.233V171.658H273.83V105.296Z" fill="#3F51B5"/>
<path d="M273.037 171.673C266.622 171.673 261.432 166.045 261.432 159.122V117.833C261.432 110.894 266.636 105.281 273.037 105.281C279.451 105.281 284.641 110.91 284.641 117.833V159.122C284.641 166.045 279.437 171.673 273.037 171.673Z" fill="#3F51B5"/>
<path d="M267.559 171.674C261.879 171.674 257.281 166.7 257.281 160.556V116.398C257.281 110.255 261.879 105.281 267.559 105.281C273.239 105.281 277.837 110.255 277.837 116.398V160.556C277.851 166.684 273.239 171.674 267.559 171.674Z" fill="#2A3F96"/>
<path d="M247.638 210.109H238.888V262.297H247.638V210.109Z" fill="#FEFEFF"/>
<path d="M241.151 255.655L216.01 267.941L216.371 271.434L242.578 262.297L241.151 255.655Z" fill="#FEFEFF"/>
<path d="M245.417 255.655L270.572 267.941L270.211 271.434L243.99 262.297L245.417 255.655Z" fill="#FEFEFF"/>
<path d="M223.16 277.656C223.16 281.243 220.465 284.159 217.149 284.159C213.834 284.159 211.138 281.243 211.138 277.656C211.138 274.07 213.834 271.154 217.149 271.154C220.465 271.154 223.16 274.07 223.16 277.656Z" fill="#000103"/>
<path d="M276.569 277.656C276.569 281.243 273.873 284.159 270.558 284.159C267.242 284.159 264.546 281.243 264.546 277.656C264.546 274.07 267.242 271.154 270.558 271.154C273.887 271.154 276.569 274.07 276.569 277.656Z" fill="#000103"/>
<path d="M267.962 213.743H217.236C214.439 213.743 212.161 211.279 212.161 208.254C212.161 205.229 214.439 202.765 217.236 202.765H267.962C270.759 202.765 273.037 205.229 273.037 208.254C273.037 211.295 270.759 213.743 267.962 213.743Z" fill="#3F51B5"/>
<path d="M208.673 94.0541L219.34 106.918L229.805 95.13L213.761 76.0762L208.673 94.0541Z" fill="#F1BA9A"/>
<path d="M214.915 101.586C214.728 101.367 213.574 91.1069 213.574 91.1069L209.884 95.5199L214.915 101.586Z" fill="#D89877"/>
<path d="M192.442 64.5839C192.442 64.5839 186.315 68.8563 189.544 77.9936C189.544 77.9936 191.952 84.5893 195.469 94.054C197.328 99.0592 203.08 101.133 207.131 97.9834C209.61 96.0499 212.176 93.3991 213.978 89.8752L216.255 84.2306C220.868 69.2928 205.819 55.852 193.35 63.9602C193.033 64.1629 192.744 64.3656 192.442 64.5839Z" fill="#F1BA9A"/>
<path d="M193.249 85.0105L191.476 89.5012C191.231 90.1249 191.764 90.7642 192.355 90.5615L195.483 89.5012L193.249 85.0105Z" fill="#F1BA9A"/>
<path d="M193.48 76.7774C193.48 76.7774 191.13 77.4166 191.389 78.5704C191.389 78.5704 191.577 79.3344 193.624 78.7419C195.656 78.1338 196.132 77.7596 196.132 76.9645C196.132 76.1693 194.561 76.3876 193.48 76.7774Z" fill="black"/>
<path d="M220.075 61.0761C218 57.6302 212.983 55.0107 209.178 54.9327C192.845 54.5429 188.622 70.1665 188.622 70.1665C208.731 53.5762 207.65 76.575 207.65 76.575C207.65 76.575 211.527 79.0854 212.479 80.442C216.76 86.523 220.739 84.6363 220.739 84.6363C221.906 72.8484 223.449 66.6582 220.075 61.0761Z" fill="#FA584E"/>
<path d="M195.555 84.1211C195.612 84.7293 195.194 85.275 194.632 85.3218C194.07 85.3842 193.565 84.932 193.522 84.3239C193.479 83.7157 193.883 83.17 194.445 83.1232C195.007 83.0608 195.512 83.513 195.555 84.1211Z" fill="black"/>
<path d="M195.945 91.7306L198.064 90.0469" stroke="black" stroke-width="0.5187" stroke-miterlimit="10" stroke-linecap="round" stroke-linejoin="round"/>
<path d="M208.154 79.5531C205.848 79.8182 203.729 78.1654 203.21 75.7173L201.667 68.3265C201.667 68.3265 195.267 76.2787 191.461 69.8078C191.461 69.8078 181.976 75.577 179.944 68.3577C177.911 61.1384 184.167 59.2673 197.761 54.7766C197.761 54.7766 195.08 52.2662 197.083 50.9409C199.087 49.6155 203.311 52.734 203.311 52.734C203.311 52.734 203.368 48.4305 205.689 48.3993C208.024 48.3681 209.25 51.3307 209.25 51.3307C209.25 51.3307 226.043 48.3213 223.636 68.3733L220.739 84.6363L210.907 76.6997L208.154 79.5531Z" fill="#FA584E"/>
<path d="M215.996 75.4835C217.235 78.0094 216.356 81.1591 214.006 82.5001C211.671 83.841 208.759 82.8899 207.519 80.3483C206.28 77.8223 207.159 74.6727 209.509 73.3317C211.844 71.9908 214.756 72.9575 215.996 75.4835Z" fill="#F1BA9A"/>
<path d="M210.33 79.9274C210.33 79.9274 208.702 76.606 211.887 75.4365" stroke="black" stroke-width="0.5187" stroke-miterlimit="10" stroke-linecap="round" stroke-linejoin="round"/>
<path d="M218.129 107.152C218.129 107.152 218.028 116.367 223.636 131.367C229.243 146.367 227.139 172.453 227.139 172.453C227.139 172.453 242.822 181.59 266.334 181.263C266.334 181.263 268.784 140.644 257.584 115.712C247.334 92.8846 229.546 94.6777 229.546 94.6777L218.129 107.152Z" fill="#FEFEFF"/>
<path d="M157.34 157.406H123.94V161.367H157.34V157.406Z" fill="#FEFEFF"/>
<path d="M188.521 146.384L157.269 153.852L156.216 161.321H199.837L188.521 146.384Z" fill="#F1BA9A"/>
<path d="M156.216 161.32C156.216 161.32 144.583 161.024 141.945 151.279L132.085 152.776C130.932 152.776 130.009 151.778 130.009 150.53C130.009 149.454 130.716 148.519 131.696 148.332L139.581 145.806C140.619 145.587 141.657 145.587 142.695 145.79C145.16 146.273 150.998 149.595 157.254 153.867L156.216 161.32Z" fill="#F1BA9A"/>
<path d="M220.133 107.121L188.521 146.383L199.837 161.32L238.484 128.436L220.133 107.121Z" fill="#FEFEFF"/>
<path d="M225.784 139.241L238.484 128.436" stroke="#EBEFF2" stroke-width="0.7789" stroke-miterlimit="10"/>
<path d="M189.789 246.205L200.081 268.705L213.084 267.785L204.608 242.9L189.789 246.205Z" fill="#F1BA9A"/>
<path d="M198.207 265.681L179.597 276.533C178.228 277.313 177.536 279.012 177.911 280.649L218.244 279.776L213.574 265.135L198.207 265.681Z" fill="#000103"/>
<path d="M218.994 284.095L177.522 285L177.435 280.649L218.908 279.745L218.994 284.095Z" fill="#FEFEFF"/>
<path d="M188.521 259.724L210.806 254.969L194.979 191.959C192.845 183.82 184.816 179.314 177.45 182.105C170.329 184.802 166.61 193.253 169.161 200.925L188.521 259.724Z" fill="#746256"/>
<path d="M227.139 172.453L179.036 181.606C179.036 181.606 175.302 188.825 178.43 193.129L183.72 200.426C185.003 202.188 186.964 204.854 189.04 204.854L248.041 203.233C248.041 203.233 266.55 205.197 266.348 181.247L227.139 172.453Z" fill="#746256"/>
<path d="M198.064 204.199L192.082 198.913" stroke="#5B493D" stroke-width="0.7789" stroke-miterlimit="10"/>
<path d="M98.5418 90.967H94.9236V160.603H98.5418V90.967Z" fill="#FEFEFF"/>
<path d="M115.61 157.407H79.1536V161.321H115.61V157.407Z" fill="#FEFEFF"/>
<path d="M92.5248 39.6788L84.4861 42.8235L115.127 134.468L123.166 131.323L92.5248 39.6788Z" fill="#FEFEFF"/>
<path d="M91.9111 88.1601C91.9111 94.7558 96.8555 100.104 102.953 100.104C105.923 100.104 108.604 98.8255 110.593 96.7673C108.171 89.8753 105.75 82.9521 102.175 76.2472C96.4519 76.6994 91.9111 81.845 91.9111 88.1601Z" fill="#FEFEFF"/>
<path d="M96.4805 78.5084L100.156 99.6525C100.156 99.6525 101.598 100.276 103.688 100.042L96.4805 78.5084Z" fill="#C6C6C6"/>
<path d="M73.7766 170.052V285" stroke="#FEFEFF" stroke-width="2.077" stroke-miterlimit="10"/>
<path d="M183.721 170.052V285" stroke="#FEFEFF" stroke-width="2.077" stroke-miterlimit="10"/>
<path d="M210.807 161.32H51.4766V170.036H210.807V161.32Z" fill="#213033"/>
<path d="M350 285H0" stroke="#213033" stroke-width="1.0385" stroke-miterlimit="10"/>
</svg>
