<svg width="350" height="280" viewBox="0 0 350 280" fill="none" xmlns="http://www.w3.org/2000/svg">
<path d="M350 0H226.472V119.669H350V0Z" fill="white"/>
<path d="M253.396 21.3701H241.296V34.1166H253.396V21.3701Z" fill="#F9CE80"/>
<path d="M276.746 21.3701H264.646V34.1166H276.746V21.3701Z" fill="#F9CE80"/>
<path d="M331.999 77.2737H319.899V90.0209H331.999V77.2737Z" fill="#4CAF52"/>
<path d="M255.255 47.6406H243.155V60.3875H255.255V47.6406Z" fill="#4CAF52"/>
<path d="M273.27 66.4094H261.17V79.1566H273.27V66.4094Z" fill="#F9CE80"/>
<path d="M317.175 41.1252H305.075V53.8725H317.175V41.1252Z" fill="#F9CE80"/>
<path d="M287.981 14.9883V105.249" stroke="#EBEFF2" stroke-miterlimit="10"/>
<path d="M75.749 37.1859C78.4265 25.1572 71.3405 13.1194 59.9219 10.2988C48.5034 7.47816 37.0762 14.9428 34.3987 26.9715C31.7211 39.0003 38.8071 51.038 50.2257 53.8587C61.6443 56.6793 73.0714 49.2146 75.749 37.1859Z" stroke="#D1D7DB" stroke-width="0.6976" stroke-miterlimit="10"/>
<path d="M55.0681 22.52V32.0838H69.3955" stroke="#D1D7DB" stroke-width="0.6976" stroke-miterlimit="10"/>
<path d="M229.111 185.467L241.226 278.79" stroke="#213033" stroke-width="1.0124" stroke-miterlimit="10"/>
<path d="M192.81 187.558L180.894 279.387" stroke="#213033" stroke-width="1.0124" stroke-miterlimit="10"/>
<path d="M237.112 188.814H185.689C183.164 188.814 181.107 186.662 181.107 183.987V183.927C181.107 181.267 183.15 179.1 185.689 179.1H237.112C239.637 179.1 241.693 181.252 241.693 183.927V183.987C241.679 186.647 239.637 188.814 237.112 188.814Z" fill="#000103"/>
<path d="M124.748 236.903L115.783 258.167L127.869 262.74L139.331 240.086L124.748 236.903Z" fill="#FFAD9E"/>
<path d="M115.173 254.7L94.4334 256.673C92.9155 256.807 91.6672 258.033 91.4402 259.647L128.252 275.561L129.287 260.573L115.173 254.7Z" fill="#000103"/>
<path d="M127.372 279.717L89.511 263.368L91.0005 259.452L128.848 275.816L127.372 279.717Z" fill="#FEFEFF"/>
<path d="M171.149 194.492L136.536 255.239L115.925 244.943L145.842 181.686C149.232 173.227 158.949 170.015 166.241 174.931C172.397 179.1 174.539 187.603 171.149 194.492Z" fill="#3A933C"/>
<path d="M236.871 152.531C236.871 152.531 245.623 170.418 232.558 178.592C230.657 179.773 228.501 180.415 226.317 180.58L170.411 190.98L150.963 163.305L192.669 152.635L236.871 152.531Z" fill="#4CAF52"/>
<path d="M171.646 234.093L183.065 253.984L193.435 245.929L182.356 223.05L171.646 234.093Z" fill="#FFAD9E"/>
<path d="M180.044 252.564L169.844 271.901C169.092 273.321 169.334 275.099 170.454 276.205L203.577 252.833L192.555 243.463L180.044 252.564Z" fill="#000103"/>
<path d="M206.301 255.971L172.242 280L170.057 276.489L204.117 252.459L206.301 255.971Z" fill="#FEFEFF"/>
<path d="M166.397 170.867L193.888 235.618L174.27 247.916L142.168 185.885C137.529 178.114 140.522 167.773 148.466 164.142C155.19 161.078 162.978 163.992 166.397 170.867Z" fill="#4CAF52"/>
<path d="M174.61 190.189L165.461 185.467" stroke="#3A933C" stroke-width="0.7475" stroke-miterlimit="10"/>
<path d="M146.168 134.568L155.814 133.776L155.516 144.072L147.161 144.057L146.168 134.568Z" fill="#FCC3CB"/>
<path d="M146.877 134.568C146.877 134.568 124.748 125.483 127.202 144.042H148.438L146.877 134.568Z" fill="#FFC9BD"/>
<path d="M179.632 92.2476C179.632 92.2476 169.659 114.14 167.517 136.556C167.276 139.066 169.674 141.562 171.532 143.146C175.717 146.702 182.738 143.146 184.299 137.975C184.299 137.975 196.357 95.8639 195.051 94.8926C194.725 94.6535 179.632 92.2476 179.632 92.2476Z" fill="#736153"/>
<path d="M173.319 128.71L142.792 127.888L145.076 144.401L175.617 144.566C176.766 144.625 177.93 144.356 178.937 143.744C182.355 141.607 183.817 136.884 181.859 132.894C180.242 129.592 176.724 127.873 173.319 128.71Z" fill="#736153"/>
<path d="M203.349 83.7896L182.752 89.6624C180.653 89.9463 179.149 91.9637 179.362 94.2053L192.668 152.635C192.668 152.635 200.2 161.586 236.87 152.516L231.749 92.8753C232.004 90.574 229.323 86.9725 227.167 86.7185L203.349 83.7896Z" fill="#736153"/>
<path d="M187.221 127.515C187.646 129.472 182.965 107.909 182.937 107.715" stroke="#5E4C3F" stroke-width="0.7625" stroke-miterlimit="10"/>
<path d="M191.93 145.417H157.048V141.218H191.93C193.023 141.218 193.902 142.16 193.902 143.31C193.902 144.476 193.023 145.417 191.93 145.417Z" fill="#9198AA"/>
<path d="M161.645 145.417H112.563C109.896 145.417 107.569 143.534 106.846 140.8L97.4123 104.696C96.8307 102.454 98.4053 100.242 100.59 100.242H147.473C149.246 100.242 150.807 101.513 151.261 103.351L161.645 145.417Z" fill="#AFB4C3"/>
<path d="M125.4 127.575C127.813 127.575 129.769 125.487 129.769 122.912C129.769 120.337 127.813 118.25 125.4 118.25C122.987 118.25 121.031 120.337 121.031 122.912C121.031 125.487 122.987 127.575 125.4 127.575Z" stroke="white" stroke-width="0.6139" stroke-miterlimit="10"/>
<path d="M213.024 98.569C213.024 98.569 224.245 122.24 236.927 141.323C238.345 143.46 241.707 144.521 244.161 144.416C249.708 144.162 252.063 137.796 249.963 132.626C249.963 132.626 232.047 88.8406 229.578 88.1233C229.195 88.0187 213.024 98.569 213.024 98.569Z" fill="#736153"/>
<path d="M200.2 135.943L209.846 135.151L209.549 145.432H201.193L200.2 135.943Z" fill="#FFC9BD"/>
<path d="M200.91 135.943C200.91 135.943 178.78 126.858 181.234 145.417H202.47L200.91 135.943Z" fill="#FFC9BD"/>
<path d="M241.764 128.486L207.066 129.592L207.747 146.135L243.793 145.328C248.928 144.595 252.049 138.917 250.148 133.791C248.814 130.205 245.367 128.023 241.764 128.486Z" fill="#736153"/>
<path d="M219.706 107.715L228.884 128.904L207.066 129.607L207.052 135.151" stroke="#5E4C3F" stroke-width="0.7625" stroke-miterlimit="10"/>
<path d="M228.884 128.904L233.735 131.43" stroke="#5E4C3F" stroke-width="0.7625" stroke-miterlimit="10"/>
<path d="M180.171 43.5608C179.972 43.7999 169.787 47.7451 180.199 60.4025L188.186 45.2495L180.171 43.5608Z" fill="black"/>
<path d="M184.753 46.3401C184.753 46.3401 180.057 48.223 179.618 51.4957L179.192 46.0711C179.192 46.0711 176 39.1521 181.306 35.1471C187.76 30.2754 194.016 34.0263 195.931 35.5655C197.846 37.1197 206.57 43.3662 206.57 43.3662C206.57 43.3662 213.734 45.5929 207.634 56.8755L202.343 57.6525L199.208 49.3438L191.235 46.4746L184.753 46.3401Z" fill="black"/>
<path d="M187.547 62.7039C188.029 65.4535 186.313 68.1135 183.731 68.6216C181.149 69.1297 178.653 67.3065 178.185 64.5569C177.702 61.8072 179.419 59.1473 182.001 58.6392C184.582 58.1311 187.065 59.9542 187.547 62.7039Z" fill="#EFB2A8"/>
<path d="M190.157 70.2505L193.746 88.0336C194.583 93.0397 197.662 92.8305 201.974 91.9787C205.662 91.2464 208.599 89.3934 208.343 85.1345L205.081 65.8123L190.157 70.2505Z" fill="#FFC9BD"/>
<path d="M192.853 83.5504C192.853 83.5504 204.088 78.2157 203.265 69.1602L190.952 74.2109L192.853 83.5504Z" fill="#DD9790"/>
<path d="M198.13 76.0185L192.711 77.0944C187.179 78.1853 181.887 74.1804 181.05 68.2476L179.15 54.9027C178.213 48.2975 182.355 42.0958 188.526 40.8704C194.839 39.63 202.003 43.8442 203.18 50.569L205.095 65.7968C205.705 70.6387 202.641 75.1368 198.13 76.0185Z" fill="#FFC9BD"/>
<path d="M186.271 63.6755L186.328 66.2007C186.342 66.7237 186.767 67.1271 187.25 67.0823L188.484 66.9777" stroke="#131314" stroke-width="0.4495" stroke-miterlimit="10" stroke-linecap="round" stroke-linejoin="round"/>
<path d="M191.86 54.0667C191.86 54.0667 189.264 54.1563 189.448 55.6057C189.448 55.6057 189.604 56.5919 191.86 56.4425C194.115 56.308 194.668 55.9942 194.725 55.0379C194.796 54.0966 193.051 53.8874 191.86 54.0667Z" fill="black"/>
<path d="M181.972 57.3992C181.972 57.3992 184.029 56.7716 184.412 58.1164C184.412 58.1164 184.653 59.0279 182.837 59.506C181.022 59.9842 180.369 59.76 180.085 59.0428C179.759 58.221 180.965 57.5636 181.972 57.3992Z" fill="black"/>
<path d="M190.512 61.3442C190.626 61.8972 191.136 62.226 191.647 62.1064C192.158 61.9869 192.484 61.4488 192.37 60.8959C192.257 60.3578 191.746 60.0141 191.235 60.1336C190.725 60.2532 190.399 60.7912 190.512 61.3442Z" fill="black"/>
<path d="M182.071 62.6592C182.185 63.212 182.696 63.5408 183.206 63.4213C183.717 63.3017 184.043 62.7638 183.93 62.2109C183.816 61.658 183.306 61.3292 182.795 61.4488C182.284 61.5683 181.958 62.1063 182.071 62.6592Z" fill="black"/>
<path d="M184.696 70.8331L184.994 69.0549C185.306 68.517 185.887 68.1584 186.54 68.0986L191.108 67.6951C191.718 67.6353 192.299 67.8595 192.696 68.2779L193.959 70.0113L184.696 70.8331Z" fill="black"/>
<path d="M200.939 60.0588C200.939 60.0588 196.229 59.5358 198.485 50.4351C198.485 50.4351 187.363 52.8709 184.597 44.5024L189.675 38.8687L201.024 41.0056L204.797 48.6119L204.272 55.3216L200.939 60.0588Z" fill="black"/>
<path d="M210.315 58.2209C210.797 60.9705 209.081 63.6305 206.499 64.1386C203.917 64.6466 201.421 62.8235 200.953 60.0739C200.47 57.3242 202.187 54.6642 204.768 54.1561C207.35 53.6331 209.833 55.4563 210.315 58.2209Z" fill="#FFC9BD"/>
<path d="M204.258 60.9405C204.258 60.9405 203.634 57.324 206.982 57.2493" stroke="#131314" stroke-width="0.4495" stroke-miterlimit="10" stroke-linecap="round" stroke-linejoin="round"/>
<path d="M184.597 44.5022C184.597 44.5022 181.121 45.1746 179.618 49.1198L181.093 38.3155L187.902 35.8647L193.051 37.643L192.172 44.5769L184.597 44.5022Z" fill="black"/>
<path d="M190.966 87.331L198.243 85.0596L207.677 84.3274L210.684 84.701C210.684 84.701 210.259 92.4416 197.335 93.8313C186.044 95.0417 190.966 87.331 190.966 87.331Z" fill="#FFC9BD"/>
<path d="M338.737 279.387H0" stroke="#213033" stroke-width="1.0124" stroke-miterlimit="10"/>
<path d="M77.8502 150.842L58.6287 279.358H64.388L91.6811 148.376L77.8502 150.842Z" fill="#435D60"/>
<path d="M254.545 150.842L273.753 279.358H267.993L240.714 148.376L254.545 150.842Z" fill="#435D60"/>
<path d="M292.222 145.417H38.2722V156.581H292.222V145.417Z" fill="#213033"/>
<path d="M94.4331 125.587C94.4331 125.587 97.2844 144.192 84.1061 144.879C70.9277 145.567 74.0484 125.407 74.0484 125.407L94.4331 125.587Z" fill="#FEFEFF"/>
<path d="M72.6155 140.754C69.1826 140.859 66.3029 137.975 66.2036 134.314C66.1043 130.653 68.8137 127.59 72.2467 127.485C75.6796 127.38 78.5592 130.264 78.6585 133.925C78.7578 137.586 76.0484 140.65 72.6155 140.754ZM72.3034 129.607C69.9628 129.682 68.1187 131.774 68.1896 134.254C68.2605 136.75 70.2181 138.707 72.5587 138.632C74.8994 138.558 76.7435 136.466 76.6726 133.985C76.6016 131.49 74.644 129.532 72.3034 129.607Z" fill="#FEFEFF"/>
<path d="M86.6024 112.392C86.6024 112.392 92.83 102.708 85.1697 96.85C75.8497 89.7367 89.0282 76.1228 89.0282 76.1228" stroke="#FEFEFF" stroke-width="0.7927" stroke-miterlimit="10"/>
<path d="M75.2678 84.925C75.2678 84.925 67.5793 97.986 76.6722 103.739C84.9281 108.955 78.8568 116.457 78.8568 116.457" stroke="#FEFEFF" stroke-width="0.7927" stroke-miterlimit="10"/>
</svg>
