<svg xmlns="http://www.w3.org/2000/svg" height="800" width="1200" viewBox="-118.03695 -40.18075 1022.9869 241.0845"><path d="M63.6 159.34c-23.965 0-41.823-12.328-41.823-41.823V70.281H0V44.7C23.964 38.481 33.988 17.859 35.142 0h24.885v40.555h29.032v29.726H60.027v41.13C60.027 123.74 66.25 128 76.156 128h14.058v31.34zm89.059 1.382c13.593 0 29.264-5.875 37.789-16.36v14.978h44.817v-25.463h-11.4V40.555h-54.153v25.922h15.436v44.934c0 3.574-2.994 18.666-23.272 18.666-13.021 0-15.44-7.836-15.44-17.746V40.555h-39.862v73.393c0 18.316 8.293 46.774 46.085 46.774zm96.9-1.382h65.557v-25.463h-13.371V89.521c0-6.454 5.531-19.7 22.352-19.7 13.593 0 16.36 8.3 16.36 18.09v45.968h-13.248v25.461H392.3v-25.463h-13.6V89.521c0-6.454 4.955-19.7 21.89-19.7 13.711 0 17.053 8.3 17.053 18.09v45.968h-13.011v25.461h64.751v-25.463h-13.252V92.4c0-24.426-9.217-53.228-45.624-53.228-17.972 0-32.72 8.524-38.943 19.009-7.835-11.867-19.7-19.009-37.443-19.009-14.059 0-29.5 5.988-37.792 17.4V40.555h-49.193v25.922h15.9v67.4h-13.48zm303.01 1.382c33.181 0 51.04-24.884 51.04-62.215 0-35.831-16.59-59.333-50.347-59.333-11.867 0-23.734 4.493-30.877 10.023V0h-54.849v25.694h15.9V159.34h36.524v-10.485a49.841 49.841 0 0032.604 11.867zM544.27 131.8c-11.635 0-23.044-7.374-23.044-30.646 0-28 13.483-32.95 22.814-32.95 10.829 0 20.391 8.755 20.391 30.531 0 31.342-14.055 32.379-20.161 33.065zm66.477 27.537h66.019v-25.46h-14.055V0h-54.383v25.694h15.9v108.183h-13.481zm80.422 0h64.864v-25.46h-13.249V100.7c0-22.579 15.9-27.534 28-27.534h16.129V39.174h-13.021c-14.748 0-28.344 7.142-34.45 18.547V40.555h-49.428v25.922H704.3v67.4h-13.131z"/></svg>