<svg xmlns="http://www.w3.org/2000/svg" height="800" width="1200" viewBox="-31.536795 -7.6967 273.31889 46.1802"><path d="M0 0v10.2884h41.782V0zm0 20.4983v10.2885h41.782V20.4983z" fill="#bbbcbe"/><path d="M64.558 0c-3.2578 0-5.4914.7948-6.99 1.9634-1.7623 1.3415-2.5131 3.1541-2.5131 4.948 0 1.5455.5058 2.9215 1.2566 4.0053 1.2095 1.7122 4.6777 3.575 7.2255 4.8694 2.419 1.2094 4.709 2.1865 6.0474 3.7698.8764 1.0398 1.335 2.1016 1.335 3.7698 0 1.8786-.8293 3.3143-2.1204 4.3195-1.2975 1.0053-3.107 1.5708-5.0264 1.5708-4.4233 0-6.7511-1.3069-8.0894-6.44l-1.4922.3926c.5466 1.8346 1.0335 3.6159 1.4137 6.2045 2.4158.8765 5.353 1.4137 7.7752 1.4137 3.7164 0 6.4966-1.087 8.2464-2.6703 1.5865-1.42 2.3562-3.3269 2.3562-5.4977 0-2.045-.93-3.9457-1.8064-4.9478-1.797-2.0452-4.2033-3.0441-7.461-4.7123-2.6295-1.3351-4.26-2.2556-5.3406-3.2986-.7917-.7508-1.4137-2.13-1.4137-3.2986 0-1.2943.49-2.3844 1.4922-3.22 1.1686-.9959 2.862-1.5707 4.9479-1.5707 4.929 0 5.7992 1.5142 6.6757 5.8117l1.4922-.3926c-.377-1.8818-.773-4.0997-1.021-5.8118C69.4148.3487 67.2314 0 64.5579 0zm59.6886.5498v1.2566c3.1258 0 3.377.2136 3.377 3.22V25.839c0 2.9624-.2512 3.1415-3.377 3.1415v1.178h13.587c4.3415 0 6.7762-1.0084 8.4035-2.5917 1.6681-1.5864 2.3561-3.6473 2.3561-5.7332 0-2.2965-1.1655-3.9395-2.6702-5.105-1.7938-1.3822-4.194-2.1142-6.9114-2.199v-.0784c2.6295-.377 4.4044-1.2315 5.6547-2.3562 1.5457-1.379 2.042-3.2074 2.042-4.7908 0-2.1299-1.0838-3.7823-2.6703-4.8693-2.2556-1.508-4.7216-1.885-8.5605-1.885h-11.231zm-17.3569.7068c-1.8409 0-3.2451.6911-4.241 1.6493-1.3791 1.42-2.042 3.3457-2.042 5.8903v2.5918h-3.063v1.3351h3.063v13.587c0 2.551-.2199 2.8274-3.1415 2.8274v1.021h9.346v-1.021c-3.132 0-3.2986-.2418-3.2986-2.7488V12.723h5.262v-1.335h-5.262V8.9533c0-2.9656.4995-4.4986 1.3352-5.4976.5811-.6283 1.2063-.9425 2.042-.9425 1.2942 0 1.8189.886 2.2775 1.8064.4618.9204.889 1.8063 1.885 1.8063.757 0 1.178-.4178 1.178-1.2566 0-.7508-.5969-1.797-1.8064-2.5917-.8419-.5435-1.8252-1.021-3.5342-1.021zm89.0617 0c-1.5425.9582-2.9813 1.4325-5.0264 1.7278v.864c2.2556 0 2.5132.3298 2.5132 2.7488v19.7915c0 2.419-.091 2.7488-2.5132 2.7488v1.021h7.7753v-1.021c-2.2965 0-2.3562-.3299-2.3562-2.7488v-4.3982l2.2776-2.356 6.8328 10.524h4.7908v-1.021c-1.2503.041-2.221-.1069-3.1415-1.5708l-6.3616-9.6601 4.3981-4.241c.9582-.9205 1.621-1.216 2.8274-1.2567v-1.021h-6.2045v1.021c2.0074 0 1.753.6849.6283 1.7279l-5.9689 5.8118h-.0783V1.4922l-.3927-.2355zm-64.0081.9425h4.0054c2.9247 0 4.794.6094 5.9688 1.5707.9142.7508 1.5708 2.4284 1.5708 3.8484 0 2.001-.6786 3.4745-1.885 4.4766-1.5078 1.2535-3.8765 1.8064-6.7542 1.8064h-4.1624V3.6127c0-1.1278.1759-1.4136 1.2566-1.4136zm-16.4144 3.9268c-.5404 4.3793-2.3153 5.4034-4.9479 5.6547v.9425h3.1415v13.6656c0 3.2577 1.9572 4.241 4.084 4.241 1.709 0 3.0001-.534 4.084-1.4922l-.6284-.9425c-.8388.6283-1.6241 1.021-2.5917 1.021-1.4577 0-2.042-1.0273-2.042-2.9844V12.723h4.3981v-1.335h-4.3981V6.126zm-29.3731 4.7908c-2.6734 0-4.6557.7697-6.283 2.2776-1.6682 1.6242-2.5132 4.2442-2.5132 7.5396 0 3.8013.9644 6.3113 2.5917 7.8538 1.6713 1.4608 3.7039 2.042 6.2045 2.042 2.6294 0 4.6149-.622 6.283-2.1205 1.5896-1.5457 2.5918-4.0149 2.5918-7.7753 0-3.2954-.9613-5.8306-2.5918-7.461-1.6273-1.5457-3.4902-2.3562-6.283-2.3562zm72.8044 0c-2.2085 0-3.6253.5498-4.7123 1.1781-1.3382.7917-2.199 1.9038-2.199 2.9059 0 .6314.3832 1.2566 1.178 1.2566.8765 0 1.285-.4367 1.4922-1.021.3802-.9205.7132-1.6273 1.2567-2.042.7508-.5906 1.5739-.9424 2.8273-.9424 1.3791 0 2.3624.421 2.9844 1.2566.5467.71.7069 1.9477.7069 2.9059v1.8063l-2.4347.5498c-2.6734.5812-4.7814 1.4734-6.2045 2.4347-1.8346 1.2063-2.5917 2.7142-2.5917 4.6337 0 1.5864.6472 2.7394 1.6493 3.5342 1.087.8765 2.51 1.2566 3.8483 1.2566 2.7552 0 4.395-.9393 5.8118-2.2776h.1571c.3801 1.3728 1.2943 2.1205 2.7488 2.1205 1.0901 0 1.8033-.2169 2.5132-.5498l-.2355-1.021c-.333.2074-.688.3142-1.0995.3142-.8325 0-1.2566-.7917-1.2566-2.6703v-9.8172c0-1.8346-.333-2.9499-1.4137-4.1625-1.046-1.1655-2.5195-1.6493-5.0264-1.6493zm15.3934 0c-1.3792 1.0022-2.8022 1.4357-4.6338 1.7279v.9424c2.2084-.041 2.4347.2513 2.4347 2.6703v10.1314c0 2.507-.1855 2.7488-2.4347 2.7488v1.021h7.304v-1.021c-1.9634 0-2.042-.2418-2.042-2.7488V16.3358c1.6713-2.2996 3.5877-3.9269 5.3406-3.9269 1.1247 0 1.888.3236 2.4347.864.7917.8387.9425 2.1425.9425 3.7698v9.346c0 2.507-.1131 2.7488-2.1205 2.7488v1.021h7.0683v-1.021c-1.8785 0-2.042-.333-2.042-2.6703v-9.5816c0-2.2085-.5309-3.7133-1.4922-4.6337-.9173-.8765-2.2116-1.3352-4.0054-1.3352-2.2964 0-4.4546 1.3289-6.126 3.4557h-.0784l-.1571-3.22-.3927-.2355zM86.0773 12.252c1.756 0 3.2012.556 4.1625 1.7278 1.1246 1.4608 1.7278 3.5373 1.7278 6.7542 0 3.3803-.7634 5.4945-1.8064 6.8328-.9581 1.0838-2.2524 1.8064-4.0054 1.8064-1.753 0-3.129-.7226-4.084-1.8064-1.043-1.3383-1.7278-3.4525-1.7278-6.8328 0-3.2169.6063-5.2934 1.7278-6.7542.999-1.1718 2.3373-1.7278 4.0055-1.7278zm44.6093 3.22h5.1835c3.418 0 5.7647.5969 7.2255 1.7278 1.4953 1.1278 2.2776 2.7174 2.2776 4.5552 0 2.174-.6472 3.751-1.6493 4.7908-1.42 1.464-3.3174 2.042-6.283 2.042h-5.1835c-1.2943 0-1.5708-.2922-1.5708-2.042zm31.8078 4.0054V26.86c-1.0461 1.0398-2.4284 2.199-4.4767 2.199-1.2503 0-2.199-.4304-2.8273-1.021-.6283-.622-.864-1.5016-.864-2.5917 0-1.9163 1.1247-3.0535 2.7489-3.9269 1.5425-.9581 3.6221-1.5425 5.419-2.042z" fill="#212121"/></svg>