<svg width="481" height="105" viewBox="0 0 481 105" fill="none" xmlns="http://www.w3.org/2000/svg">
<circle cx="50" cy="50" r="50" fill="white"/>
<path d="M49.5391 80.4758L15.8594 66.6243V59.5227L49.5391 45.6711L83.2188 59.5227V66.6243L49.5391 80.4758ZM49.5391 72.7415L74.1484 63.3899V62.7571L49.5391 53.4055L23.5234 62.7571V63.3899L49.5391 72.7415Z" fill="#771BC9"/>
<path d="M49.5398 60.4766L15.8601 46.625V39.5234L49.5398 25.6719L83.2195 39.5234V46.625L49.5398 60.4766ZM49.5398 52.7422L74.1492 43.3906V42.7578L49.5398 33.4062L23.5242 42.7578V43.3906L49.5398 52.7422Z" fill="#771BC9"/>
<rect x="62" y="41.2125" width="41.2366" height="25" transform="rotate(89.4634 62 41.2125)" fill="white"/>
<path d="M42.1719 75.7825L53.5244 49.4153H57.5527L46.2002 75.7825H42.1719Z" fill="#771BC9"/>
<path d="M140.784 29.648L143.28 74H134.128L133.584 55.024C133.541 53.2533 133.52 51.6747 133.52 50.288C133.541 48.9013 133.573 47.6 133.616 46.384C133.659 45.1467 133.723 43.9093 133.808 42.672C133.915 41.4133 134.021 40.048 134.128 38.576L129.136 66.448H121.2L115.824 38.576C115.952 39.984 116.059 41.3173 116.144 42.576C116.251 43.8133 116.325 45.0613 116.368 46.32C116.411 47.5787 116.443 48.9333 116.464 50.384C116.485 51.8133 116.475 53.4133 116.432 55.184L116.112 74H107.12L109.616 29.648H120.4L125.328 58.32L130 29.648H140.784ZM167.223 59.952C167.458 61.808 167.938 63.312 168.663 64.464C169.41 65.5947 170.359 66.4267 171.511 66.96C172.663 67.472 173.954 67.728 175.383 67.728C176.94 67.728 178.444 67.472 179.895 66.96C181.346 66.448 182.743 65.7653 184.087 64.912L188.151 70.416C186.551 71.7813 184.61 72.9013 182.327 73.776C180.066 74.6507 177.484 75.088 174.583 75.088C170.7 75.088 167.447 74.32 164.823 72.784C162.199 71.2267 160.226 69.0933 158.903 66.384C157.58 63.6747 156.919 60.56 156.919 57.04C156.919 53.6907 157.559 50.6507 158.839 47.92C160.119 45.168 161.986 42.9813 164.439 41.36C166.914 39.7173 169.932 38.896 173.495 38.896C176.738 38.896 179.543 39.5893 181.911 40.976C184.3 42.3627 186.146 44.3573 187.447 46.96C188.77 49.5627 189.431 52.688 189.431 56.336C189.431 56.912 189.41 57.5307 189.367 58.192C189.346 58.8533 189.303 59.44 189.239 59.952H167.223ZM173.495 45.68C171.682 45.68 170.22 46.3307 169.111 47.632C168.002 48.9333 167.33 51.0133 167.095 53.872H179.575C179.554 51.3973 179.074 49.4133 178.135 47.92C177.196 46.4267 175.65 45.68 173.495 45.68ZM206.75 74V67.216H211.23V46.736H206.75V40.016H218.942L220.798 47.664C222.014 44.7413 223.561 42.5653 225.438 41.136C227.337 39.7067 229.651 38.992 232.382 38.992C233.534 38.992 234.558 39.088 235.454 39.28C236.35 39.4507 237.193 39.696 237.982 40.016L234.91 48.368C234.291 48.1973 233.673 48.0693 233.054 47.984C232.435 47.8987 231.753 47.856 231.006 47.856C228.787 47.856 226.835 48.7627 225.15 50.576C223.486 52.3893 222.217 54.6933 221.342 57.488V67.216H228.062V74H206.75ZM229.758 54.224V44.304L231.262 40.016H237.982L236.094 54.224H229.758ZM254.405 74V40.016H263.237L263.941 43.952C265.456 42.2453 267.056 40.976 268.741 40.144C270.426 39.312 272.346 38.896 274.501 38.896C277.402 38.896 279.685 39.7813 281.349 41.552C283.013 43.3227 283.845 45.8187 283.845 49.04V74H273.733V51.952C273.733 50.5653 273.637 49.4667 273.445 48.656C273.253 47.824 272.912 47.2373 272.421 46.896C271.952 46.5333 271.301 46.352 270.469 46.352C269.765 46.352 269.072 46.512 268.389 46.832C267.728 47.1307 267.077 47.568 266.437 48.144C265.797 48.72 265.157 49.4133 264.517 50.224V74H254.405ZM334.252 61.04C334.252 63.792 333.527 66.224 332.076 68.336C330.647 70.448 328.588 72.1013 325.9 73.296C323.212 74.4907 319.98 75.088 316.204 75.088C312.023 75.088 308.513 74.48 305.676 73.264C302.86 72.0267 300.524 70.5013 298.668 68.688L303.98 62.8C305.623 64.2293 307.436 65.3387 309.42 66.128C311.404 66.896 313.58 67.28 315.948 67.28C317.42 67.28 318.711 67.0667 319.82 66.64C320.929 66.2133 321.793 65.5947 322.412 64.784C323.031 63.9733 323.34 62.992 323.34 61.84C323.34 60.752 323.095 59.8347 322.604 59.088C322.113 58.3413 321.281 57.6693 320.108 57.072C318.956 56.4747 317.345 55.8667 315.276 55.248C311.82 54.1813 309.036 53.008 306.924 51.728C304.833 50.448 303.308 48.9653 302.348 47.28C301.409 45.5947 300.94 43.632 300.94 41.392C300.94 38.6827 301.687 36.368 303.18 34.448C304.695 32.528 306.721 31.0667 309.26 30.064C311.799 29.04 314.593 28.528 317.644 28.528C321.079 28.528 324.108 29.0293 326.732 30.032C329.356 31.0133 331.628 32.4213 333.548 34.256L328.588 39.952C327.095 38.6933 325.484 37.7653 323.756 37.168C322.028 36.5493 320.268 36.24 318.476 36.24C317.153 36.24 315.991 36.4107 314.988 36.752C313.985 37.072 313.207 37.552 312.652 38.192C312.097 38.832 311.82 39.632 311.82 40.592C311.82 41.5307 312.087 42.32 312.62 42.96C313.153 43.6 314.081 44.208 315.404 44.784C316.727 45.3387 318.561 45.9893 320.908 46.736C323.703 47.5893 326.092 48.6133 328.076 49.808C330.081 50.9813 331.607 52.464 332.652 54.256C333.719 56.048 334.252 58.3093 334.252 61.04ZM365.075 38.896C368.574 38.896 371.55 39.6427 374.003 41.136C376.456 42.6293 378.334 44.7307 379.635 47.44C380.936 50.128 381.587 53.2853 381.587 56.912C381.587 60.688 380.926 63.9413 379.603 66.672C378.302 69.3813 376.424 71.4613 373.971 72.912C371.518 74.3627 368.552 75.088 365.075 75.088C361.619 75.088 358.654 74.3733 356.179 72.944C353.726 71.5147 351.838 69.4453 350.515 66.736C349.214 64.0267 348.563 60.7733 348.563 56.976C348.563 53.3707 349.214 50.2133 350.515 47.504C351.838 44.7947 353.726 42.6827 356.179 41.168C358.654 39.6533 361.619 38.896 365.075 38.896ZM365.075 46.352C363.006 46.352 361.47 47.2053 360.467 48.912C359.486 50.5973 358.995 53.2853 358.995 56.976C358.995 60.7307 359.486 63.4507 360.467 65.136C361.47 66.8213 363.006 67.664 365.075 67.664C367.144 67.664 368.67 66.8213 369.651 65.136C370.654 63.4507 371.155 60.7093 371.155 56.912C371.155 53.2427 370.654 50.5653 369.651 48.88C368.67 47.1947 367.144 46.352 365.075 46.352ZM419.962 25.456C422.437 25.456 424.623 25.6587 426.522 26.064C428.421 26.448 430.117 26.96 431.61 27.6L428.826 34.192C427.653 33.744 426.447 33.424 425.21 33.232C423.973 33.0187 422.746 32.912 421.53 32.912C419.525 32.912 418.085 33.2747 417.21 34C416.357 34.7253 415.93 35.9307 415.93 37.616V42.16H427.002L425.882 49.168H415.93V74H405.882V49.168H398.746V42.16H405.882V37.232C405.882 34.992 406.415 32.9867 407.482 31.216C408.549 29.4453 410.127 28.048 412.218 27.024C414.309 25.9787 416.89 25.456 419.962 25.456ZM476.897 72.016C475.574 72.8693 473.974 73.5947 472.097 74.192C470.22 74.7893 468.108 75.088 465.761 75.088C461.324 75.088 458.028 73.9573 455.873 71.696C453.718 69.4133 452.641 66.32 452.641 62.416V46.992H445.505V40.016H452.641V32.656L462.753 31.44V40.016H473.697L472.705 46.992H462.753V62.416C462.753 64.1013 463.137 65.3067 463.905 66.032C464.673 66.7573 465.9 67.12 467.585 67.12C468.78 67.12 469.868 66.9813 470.849 66.704C471.852 66.4053 472.748 66.032 473.537 65.584L476.897 72.016Z" fill="#2F0C68"/>
</svg>
