<svg width="384" height="286" viewBox="0 0 384 286" fill="none" xmlns="http://www.w3.org/2000/svg">
<path d="M85.4116 35.0066H1V43.8161H85.4116V35.0066Z" stroke="#D1D7DB" stroke-width="0.6976" stroke-miterlimit="10"/>
<path d="M31.0535 19.9985H17.0479V35.0066H31.0535V19.9985Z" stroke="#D1D7DB" stroke-width="0.6976" stroke-miterlimit="10"/>
<path d="M45.6136 6.39697H37.6465V35.0067H45.6136V6.39697Z" stroke="#D1D7DB" stroke-width="0.6976" stroke-miterlimit="10"/>
<path d="M53.5807 6.39697H45.6135V35.0067H53.5807V6.39697Z" stroke="#D1D7DB" stroke-width="0.6976" stroke-miterlimit="10"/>
<path d="M61.1195 4.74602L53.906 8.59619L64.5791 34.4991L71.7926 30.6489L61.1195 4.74602Z" stroke="#D1D7DB" stroke-width="0.6976" stroke-miterlimit="10"/>
<path d="M325.649 20.2427L317.909 11.8206L292.054 41.8505L300.399 50.8465L325.649 20.2427Z" fill="#D1D7DB"/>
<path d="M329.87 40.0368C332.563 28.8237 326.76 17.2488 316.908 14.1834C307.056 11.118 296.886 17.723 294.192 28.936C291.499 40.1491 297.302 51.724 307.154 54.7894C317.006 57.8548 327.176 51.2498 329.87 40.0368Z" fill="#D1D7DB"/>
<path d="M312.694 46.9565C322.115 42.4682 326.556 30.1374 322.612 19.4149C318.669 8.69234 307.835 3.63845 298.414 8.12671C288.993 12.615 284.552 24.9458 288.496 35.6683C292.439 46.3908 303.273 51.4447 312.694 46.9565Z" fill="#FFFFFD"/>
<path d="M317.468 18.9941L305.757 27.517" stroke="#FE5D5D" stroke-width="0.7562" stroke-miterlimit="10"/>
<path d="M308.013 27.5168C308.013 29.1668 306.841 30.5011 305.391 30.5011C303.941 30.5011 302.769 29.1668 302.769 27.5168C302.769 25.8668 303.941 24.5325 305.391 24.5325C306.841 24.5325 308.013 25.8668 308.013 27.5168Z" fill="#D1D7DB"/>
<path d="M298.937 21.0742L304.887 27.517" stroke="#D1D7DB" stroke-width="0.7562" stroke-miterlimit="10"/>
<path d="M141.043 198.062L189.273 284.715" stroke="#213033" stroke-width="1.0385" stroke-miterlimit="10"/>
<path d="M183.062 198.062L138.835 284.899" stroke="#213033" stroke-width="1.0385" stroke-miterlimit="10"/>
<path d="M195.719 205.115C195.719 205.115 188.051 213.155 157.556 209.671C127.076 206.187 107.869 188.196 106.309 147.943C104.749 107.691 123.823 79.3816 123.823 79.3816L197.265 167.056L195.719 205.115Z" fill="#FFFFFD"/>
<path d="M140.807 55.6959C140.807 55.6959 127.193 48.8448 124.574 62.8653C124.574 62.8653 114.477 60.9557 109.311 74.055C102.217 92.0623 120.482 100.605 120.482 100.605L172.48 98.0926C172.48 98.0926 187.006 76.7184 169.845 68.4769C169.845 68.4769 170.11 55.2269 158.586 57.974L140.807 55.6959Z" fill="#FE5D5D"/>
<path d="M252.809 272.101L239.887 272.034L233.617 248.65L245.671 245.468L252.809 272.101Z" fill="#FFC9BD"/>
<path d="M239.416 269.003C242.463 269.924 249.336 272.939 252.559 267.629L274.385 281.08L235.869 280.796L237.665 270.326C237.782 269.371 238.607 268.751 239.416 269.003Z" fill="#090B0C"/>
<path d="M274.4 281.071L235.884 280.793L235.861 284.596L274.377 284.873L274.4 281.071Z" fill="white"/>
<path d="M195.719 159.552L220.151 168.966C226.553 171.428 231.557 177.207 233.617 184.544L255.591 257.411L232.455 260.527L207.081 189.268L195.719 159.552Z" fill="#2D3F96"/>
<path d="M187.786 272.068L174.864 272.017L181.576 248.684L194.498 248.751L187.786 272.068Z" fill="#FFC9BD"/>
<path d="M175.54 269.002C178.587 269.924 185.46 272.939 188.683 267.629L210.51 281.08L171.993 280.795L173.789 270.326C173.907 269.371 174.716 268.751 175.54 269.002Z" fill="#090B0C"/>
<path d="M210.524 281.07L172.008 280.793L171.985 284.596L210.501 284.873L210.524 281.07Z" fill="white"/>
<path d="M135.48 156.251C135.48 156.251 126.178 182.082 144.148 190.524C144.148 190.524 157.865 195.482 191.716 193.372L174.055 256.992L195.616 259.689L217.972 191.177C220.651 182.953 217.707 173.74 211.011 169.418L190.641 156.251H135.48Z" fill="#4151B3"/>
<path d="M165.504 83.0833C165.504 83.0833 171.435 83.1503 174.011 93.2176C176.586 103.302 183.71 127.524 183.71 127.524L166.225 142.767L163.546 112.917L165.504 83.0833Z" fill="#C1CCFF"/>
<path d="M218.002 141.511H233.029C235.766 141.511 238.415 142.583 240.52 144.56L245.303 149.032L242.801 150.992H216.295L218.002 141.511Z" fill="#FFC9BD"/>
<path d="M183.695 127.541L220.209 136.754L219.106 148.597H170.552L169.463 129.534L183.695 127.541Z" fill="#C1CCFF"/>
<path d="M143.766 77.6895L126.87 84.5238L134.434 150.992H168.756L170.36 119.986C170.36 119.986 172.509 117.038 172.951 109.181C173.392 101.174 171.847 95.1272 168.212 88.2593L165.474 83.1L152.405 78.6107L143.766 77.6895Z" fill="#C1CCFF"/>
<path d="M168.786 97.0208C168.786 97.0208 176.027 109.014 170.375 123.32L169.816 135.732" stroke="#98ABED" stroke-width="0.75" stroke-miterlimit="10"/>
<path d="M126.87 84.5244C126.87 84.5244 119.158 85.228 119.938 100.589C120.468 110.857 121.822 129.886 122.661 141.411C123.058 146.838 127.047 150.992 131.83 150.992H144.605L138.703 97.0207L126.87 84.5244Z" fill="#C1CCFF"/>
<path d="M174.658 141.511H189.685C192.422 141.511 195.071 142.583 197.176 144.56L201.959 149.032L199.457 150.992H172.951L174.658 141.511Z" fill="#FFC9BD"/>
<path d="M136.833 129.534L176.704 137.122L175.335 150.992H136.863L136.833 129.534Z" fill="#C1CCFF"/>
<path d="M138.997 100.588L141.043 130.338L176.704 137.123L176.233 141.913" stroke="#98ABED" stroke-width="0.75" stroke-miterlimit="10"/>
<path d="M142.382 130.591L134.17 129.534" stroke="#98ABED" stroke-width="0.75" stroke-miterlimit="10"/>
<path d="M158.336 52.6637C157.997 55.9301 160.043 58.895 162.913 59.2803C165.783 59.6655 168.388 57.3372 168.727 54.0708C169.065 50.8044 167.019 47.8395 164.149 47.4543C161.294 47.069 158.689 49.3974 158.336 52.6637Z" fill="#EFB2A8"/>
<path d="M154.701 25.4937C154.701 30.7367 150.962 34.9914 146.356 34.9914C141.749 34.9914 138.011 30.7367 138.011 25.4937C138.011 20.2508 141.749 15.9961 146.356 15.9961C150.962 15.9961 154.701 20.2508 154.701 25.4937Z" fill="#FE5D5D"/>
<path d="M166.21 42.0431C166.21 52.0267 159.101 60.1174 150.33 60.1174C141.558 60.1174 132.918 53.7521 132.918 43.7685C132.918 33.7849 141.558 23.9688 150.33 23.9688C159.101 23.9688 166.21 32.0595 166.21 42.0431Z" fill="#FE5D5D"/>
<path d="M155.672 69.5152L154.377 82.4134C153.935 86.9361 151.242 89.0467 147.327 88.5107C143.986 88.0584 141.057 85.663 141.043 81.8271L143.942 61.6423L155.672 69.5152Z" fill="#FFC9BD"/>
<path d="M155.054 75.7129C147.106 74.9256 142.838 63.7693 142.838 63.7693L155.834 68.2084L155.054 75.7129Z" fill="#DD9790"/>
<path d="M152.052 70.7543C158.763 71.1564 164.576 65.4611 165.047 59.2298L166.092 44.5227C166.696 36.7168 161.736 29.782 154.907 28.844C147.901 27.8892 140.322 33.4002 139.483 41.3568L138.761 53.1996C138.187 62.3455 143.442 70.0006 152.052 70.7543Z" fill="#FFC9BD"/>
<path d="M158.822 57.3369L159.675 60.118L157.571 60.1347" stroke="#201D2F" stroke-width="0.5676" stroke-miterlimit="10" stroke-linecap="round" stroke-linejoin="round"/>
<path d="M151.654 46.1308C151.654 46.1308 155.025 45.6785 154.907 47.655C154.907 47.655 154.804 48.995 151.875 49.2965C148.946 49.5979 148.21 49.3132 148.048 48.057C147.872 46.8175 150.094 46.1643 151.654 46.1308Z" fill="#FE5D5D"/>
<path d="M163.134 46.7515C163.134 46.7515 160.75 46.2322 160.514 48.0248C160.514 48.0248 160.367 49.2478 162.472 49.6331C164.562 50.0185 165.254 49.6164 165.474 48.6447C165.724 47.5222 164.282 46.8353 163.134 46.7515Z" fill="#FE5D5D"/>
<path d="M153.626 53.3669C153.626 54.1207 153.097 54.7237 152.434 54.7237C151.772 54.7237 151.242 54.1207 151.242 53.3669C151.242 52.6131 151.772 52.01 152.434 52.01C153.082 52.01 153.626 52.6131 153.626 53.3669Z" fill="#201D2F"/>
<path d="M162.457 55.1256C163.05 55.1256 163.531 54.5781 163.531 53.9028C163.531 53.2274 163.05 52.6799 162.457 52.6799C161.864 52.6799 161.383 53.2274 161.383 53.9028C161.383 54.5781 161.864 55.1256 162.457 55.1256Z" fill="#201D2F"/>
<path d="M152.434 62.1448H159.278C159.278 62.1448 159.528 64.8919 155.863 64.8584C152.155 64.8082 152.434 62.1448 152.434 62.1448Z" fill="#FFFFFD"/>
<path d="M141.042 49.7491C141.042 49.7491 150.609 47.0689 153.494 35.2425L152.302 27.9892C152.302 27.9892 135.097 26.1298 138.467 46.6166L141.042 49.7491Z" fill="#FE5D5D"/>
<path d="M148.357 36.0302C148.357 36.0302 153.626 44.0541 170.493 45.5617C170.493 45.5617 171.346 26.0799 152.287 27.9728L148.357 36.0302Z" fill="#FE5D5D"/>
<path d="M138.997 29.3795C138.997 29.3795 142.603 25.7112 146.959 24.5889C151.448 23.4331 154.436 24.5889 154.436 24.5889" stroke="white" stroke-width="0.7575" stroke-miterlimit="10" stroke-linecap="round" stroke-linejoin="round"/>
<path d="M144.134 47.2531L140.101 54.4392L138.997 43.3167L144.134 47.2531Z" fill="#FE5D5D"/>
<path d="M131.638 51.3068C131.3 54.5732 133.345 57.5381 136.215 57.9233C139.085 58.3086 141.69 55.9802 142.029 52.7139C142.367 49.4475 140.322 46.4826 137.452 46.0973C134.582 45.7121 131.977 48.0404 131.638 51.3068Z" fill="#FFC9BD"/>
<path d="M138.467 54.0204C138.467 54.0204 138.924 49.7322 135.244 49.9164" stroke="#201D2F" stroke-width="0.5676" stroke-miterlimit="10" stroke-linecap="round" stroke-linejoin="round"/>
<path d="M132.918 82.0782C132.918 82.0782 137.54 88.5775 148.034 91.1739C152.655 92.313 157.571 90.7887 160.735 86.8019C161.986 85.2274 163.193 83.6193 163.531 82.3965C163.531 82.3965 154.068 77.6895 151.463 77.6895L141.499 78.6107L132.918 82.0782Z" fill="#FFC9BD"/>
<path d="M249.585 285L285.776 156.252L322.865 283.425" stroke="#213033" stroke-width="1.0385" stroke-miterlimit="10"/>
<path d="M83.3936 285L119.57 156.252L156.658 283.425" stroke="#213033" stroke-width="1.0385" stroke-miterlimit="10"/>
<path d="M174.143 151.076H71.2075V161.445H174.143V151.076Z" fill="#111D36"/>
<path d="M346.384 151.076H171.847V161.445H346.384V151.076Z" fill="#24385B"/>
<path d="M205.624 146.989H250.543C251.543 146.989 252.353 147.91 252.353 149.049C252.353 150.188 251.543 151.109 250.543 151.109H205.624C204.623 151.109 203.814 150.188 203.814 149.049C203.814 147.91 204.623 146.989 205.624 146.989Z" fill="#090B0C"/>
<path d="M182.547 146.989H214.867C215.868 146.989 216.677 147.91 216.677 149.049C216.677 150.188 215.868 151.109 214.867 151.109H182.547C181.546 151.109 180.737 150.188 180.737 149.049C180.737 147.91 181.546 146.989 182.547 146.989Z" fill="#3D5056"/>
<path d="M211.629 131.477H306.426C308.766 131.477 310.65 129.317 310.65 126.67V57.7055C310.65 55.0421 308.751 52.8979 306.426 52.8979H211.629C209.289 52.8979 207.405 55.0588 207.405 57.7055V126.653C207.405 129.317 209.289 131.477 211.629 131.477Z" fill="#273237"/>
<path d="M213.896 131.477H308.692C311.033 131.477 312.916 129.316 312.916 126.67V57.7055C312.916 55.0421 311.018 52.8979 308.692 52.8979H213.896C211.556 52.8979 209.672 55.0588 209.672 57.7055V126.653C209.672 129.316 211.556 131.477 213.896 131.477Z" fill="#273237"/>
<path d="M254.634 89.4329L229.894 131.478H265.481L254.634 89.4329Z" fill="#090B0C"/>
<path d="M272.384 88.3601H256.474C255.046 88.3601 253.972 89.8509 254.266 91.4423L264.539 149.049C264.76 150.238 265.673 151.109 266.747 151.109H283.452C284.894 151.109 285.968 149.602 285.659 147.993L274.591 90.387C274.356 89.1977 273.444 88.3601 272.384 88.3601Z" fill="#3D5056"/>
<path d="M249.145 146.989H278.506V151.109H249.145C248.144 151.109 247.334 150.188 247.334 149.049C247.334 147.91 248.144 146.989 249.145 146.989Z" fill="#3D5056"/>
<path d="M383.075 284.9H12.9255" stroke="#213033" stroke-width="1.0385" stroke-miterlimit="10"/>
</svg>
