<svg width="351" height="285" viewBox="0 0 351 285" fill="none" xmlns="http://www.w3.org/2000/svg">
<path d="M143.882 26.072H11.0979V146.675H143.882V26.072Z" stroke="#D1D7DB" stroke-width="0.6976" stroke-miterlimit="10"/>
<path d="M153.967 9.51147H1V26.1156H153.967V9.51147Z" stroke="#D1D7DB" stroke-width="0.6976" stroke-miterlimit="10"/>
<path d="M76.7712 26.1301V146.255" stroke="#D1D7DB" stroke-width="0.6976" stroke-miterlimit="10"/>
<path d="M303.448 86.8298H239.924C236.687 86.8298 234.05 83.7897 234.05 80.0259V25.4357C234.05 21.6864 236.675 18.6318 239.924 18.6318H303.448C306.685 18.6318 309.322 21.6719 309.322 25.4357V80.0259C309.322 83.7897 306.697 86.8298 303.448 86.8298Z" fill="white"/>
<path d="M247.073 81.7773L247.035 95.7614L260.645 81.7773H247.073Z" fill="white"/>
<path d="M246.838 30.9321C251.664 25.0274 251.443 15.7096 246.345 10.1203C241.248 4.53098 233.204 4.78674 228.379 10.6915C223.554 16.5963 223.774 25.9141 228.872 31.5033C233.969 37.0926 242.013 36.8369 246.838 30.9321Z" fill="#4BB052"/>
<path d="M231.988 21.5411L236.749 25.5801L242.411 17.2415" stroke="white" stroke-width="1.7544" stroke-miterlimit="10" stroke-linecap="round" stroke-linejoin="round"/>
<path d="M288.651 39.2458H254.633V63.928H288.651V39.2458Z" fill="#3F51B5"/>
<path d="M254.633 39.2458L271.155 51.7103L288.651 39.2458" stroke="white" stroke-width="0.9002" stroke-miterlimit="10" stroke-linecap="round" stroke-linejoin="round"/>
<path d="M123.374 210.385H168.639C171.726 210.385 173.951 206.882 173.076 203.393L151.455 117.085C150.881 114.769 149.068 113.176 147.019 113.176H101.754C98.6667 113.176 96.4422 116.68 97.317 120.168L118.937 206.477C119.525 208.793 121.324 210.385 123.374 210.385Z" fill="#111D36"/>
<path d="M129.598 210.385H169.027C172.114 210.385 174.338 206.882 173.464 203.393L151.843 117.085C151.268 114.769 149.456 113.176 147.407 113.176H107.977C104.891 113.176 102.666 116.68 103.541 120.168L125.161 206.477C125.749 208.793 127.548 210.385 129.598 210.385Z" fill="#C1CCFF"/>
<path d="M129.554 276.006V280.725H172.02V276.006H129.554Z" fill="#111D36"/>
<path d="M168.19 279.771C167.84 282.217 169.264 284.533 171.389 284.939C173.501 285.344 175.5 283.694 175.85 281.233C176.2 278.786 174.776 276.47 172.651 276.065C170.539 275.66 168.539 277.324 168.19 279.771Z" fill="#111D36"/>
<path d="M148.632 277.93H152.706V209.644H148.632V277.93Z" fill="#111D36"/>
<path d="M125.711 279.771C125.361 282.217 126.786 284.533 128.911 284.938C131.023 285.344 133.022 283.694 133.372 281.233C133.722 278.786 132.297 276.47 130.173 276.065C128.073 275.659 126.074 277.324 125.711 279.771Z" fill="#111D36"/>
<path d="M124.649 210.385H172.564C174.801 210.385 176.613 208.286 176.613 205.695C176.613 203.104 174.801 201.004 172.564 201.004H124.649C122.412 201.004 120.6 203.104 120.6 205.695C120.6 208.286 122.412 210.385 124.649 210.385Z" fill="#111D36"/>
<path d="M142.432 81.3572C146.756 78.129 147.481 69.3707 147.481 69.3707L163.178 66.9097L175.738 75.8417C175.738 75.8417 171.951 88.5376 174.913 93.4161C177.825 98.2079 181.312 106.763 174.138 113.22C166.952 119.691 156.392 113.177 156.392 113.177C156.392 113.177 137.983 113.756 132.16 105.649C121.499 90.7814 140.145 83.0655 142.432 81.3572Z" fill="#000103"/>
<path d="M144.12 258.027L139.908 269.116L146.019 275.051L147.706 272.069C147.706 272.069 155.292 281.885 167.952 283.072C167.952 283.072 173.863 282.71 164.253 273.459L144.12 258.027Z" fill="#111D36"/>
<path d="M144.12 258.027L152.343 243.623L161.341 250.065L155.28 261.183C155.28 261.183 164.278 273.039 164.24 273.43C164.203 273.821 165.478 275.833 162.903 275.486C160.341 275.153 144.595 263.919 144.12 258.027Z" fill="#D48066"/>
<path d="M177.662 168.302L143.982 245.577L165.09 254.523L206.094 192.101C212.243 182.75 206.669 169.258 196.521 168.925L177.662 168.302Z" fill="#E8413D"/>
<path d="M209.194 269.68L212.305 283.013H219.341V279.568C219.341 279.568 226.377 282.709 233.288 281.45C240.199 280.19 246.148 279.409 244.124 276.354C242.087 273.3 232.951 271.099 232.951 271.099L209.194 269.68Z" fill="#111D36"/>
<path d="M201.895 251.079L209.193 269.681C209.193 269.681 210.143 272.663 215.692 273.604C221.241 274.545 237.362 276.427 235.325 272.504L219.166 265.005L211.805 244.738L201.895 251.079Z" fill="#D48066"/>
<path d="M130.81 164.423C130.81 164.423 130.035 166.421 129.336 169.562C125.749 185.761 136.534 201.482 150.969 201.482H170.127L196.709 257.433L223.203 255.74L193.372 178.335C191.335 173.036 186.948 169.446 181.949 168.997L130.81 164.423Z" fill="#FA584E"/>
<path d="M179.95 131.707L188.935 160.833H179.437L167.64 132.445L179.95 131.707Z" fill="#BC634B"/>
<path d="M172.838 109.905C172.838 109.905 178.525 110.832 183.111 136.194L165.74 136.542L172.838 109.905Z" fill="#FEFEFF"/>
<path d="M166.152 106.648L172.838 109.891C174.075 110.513 174.888 111.888 174.963 113.452C175.3 120.372 175.425 139.51 167.352 149.556L160.366 160.819H132.972L132.497 105.881L134.984 96.5576L146.481 99.8728L166.152 106.648Z" fill="#FEFEFF"/>
<path d="M173.625 136.382C173.625 136.382 175.912 130.447 175.2 120.53" stroke="#EBEFF2" stroke-width="0.7619" stroke-miterlimit="10"/>
<path d="M152.443 144.214L189.423 145.994L190.835 153.247L153.493 158.169C147.544 158.951 141.97 154.723 140.196 148.108L139.433 145.256L152.443 144.214Z" fill="#D48066"/>
<path d="M189.422 145.994C189.422 145.994 194.134 145.762 200.17 152.74L204.619 158.705L198.433 159.313L189.422 152.653V145.994Z" fill="#D48066"/>
<path d="M147.506 124.381L152.443 144.214L139.433 145.257L131.122 118.156L147.506 124.381Z" fill="#D48066"/>
<path d="M141.608 102.999L147.507 124.381L130.498 125.047L126.549 108.008C125.361 102.898 128.186 97.701 132.672 96.7311C136.584 95.8625 140.446 98.5695 141.608 102.999Z" fill="#FEFEFF"/>
<path d="M147.507 124.381L144.57 113.741" stroke="#EBEFF2" stroke-width="0.7619" stroke-miterlimit="10"/>
<path d="M151.418 103.651L154.917 88.147C154.917 88.147 157.104 89.059 159.129 89.7973C161.141 90.5356 162.841 89.7394 163.378 91.2015C163.391 91.2304 165.228 89.6959 165.228 89.6959L162.691 107.039C162.678 107.227 162.678 107.401 162.678 107.574L151.356 104.115C151.368 103.97 151.393 103.811 151.418 103.651Z" fill="#D48066"/>
<path d="M164.041 97.6578C164.041 97.6578 156.492 98.179 154.718 86.8582L165.178 90.0141L164.041 97.6578Z" fill="#A54A35"/>
<path d="M147.519 69.0958C146.019 79.1281 153.98 87.9588 162.366 89.03C166.84 89.5946 177.625 82.559 178.587 72.4544C179.55 62.3353 174.088 54.9522 165.715 53.7217C157.967 52.5926 149.281 57.283 147.519 69.0958Z" fill="#000103"/>
<path d="M169.464 81.1255C169.24 83.5287 170.739 85.7002 172.814 85.9608C174.888 86.2214 176.763 84.4842 176.988 82.081C177.213 79.6778 175.713 77.5062 173.639 77.2456C171.552 76.985 169.689 78.7223 169.464 81.1255Z" fill="#BC634B"/>
<path d="M152.818 68.9225C152.293 74.5103 152.518 79.4178 152.88 82.9211C153.23 86.3519 154.905 88.9432 157.392 91.1581L157.842 91.5634C160.479 93.9231 164.128 94.4297 167.177 92.8663C170.252 91.3028 172.526 89.0011 173.489 85.4834C175.238 79.0849 176.051 71.8612 176.051 71.8612C176.051 71.8612 178.462 57.8915 165.903 56.5741C153.355 55.2858 152.818 68.9225 152.818 68.9225Z" fill="#D48066"/>
<path d="M171.489 61.8287C171.489 61.8287 166.527 72.1073 150.093 73.3523C150.093 73.3523 150.831 54.1415 163.103 54.3442C163.103 54.3442 169.277 53.5335 171.489 61.8287Z" fill="#000103"/>
<path d="M167.964 61.901C167.964 61.901 170.401 71.2383 177.2 74.9587C177.2 74.9587 179.737 60.3665 168.102 55.6038C168.089 55.6038 170.151 54.6049 167.964 61.901Z" fill="#000103"/>
<path d="M169.777 79.6057C169.702 80.3439 170.164 81.0097 170.802 81.0965C171.439 81.1834 172.014 80.6478 172.089 79.9097C172.164 79.1715 171.702 78.5057 171.064 78.4189C170.427 78.3321 169.852 78.8676 169.777 79.6057Z" fill="#000103"/>
<path d="M159.716 78.1145C159.641 78.8526 160.104 79.5185 160.741 79.6053C161.379 79.6922 161.953 79.1566 162.028 78.4185C162.103 77.6803 161.641 77.0145 161.004 76.9277C160.366 76.8409 159.791 77.3763 159.716 78.1145Z" fill="#000103"/>
<path d="M167.052 81.3428L167.215 84.0643C167.165 84.5131 166.79 84.8171 166.428 84.6724L165.69 84.238" stroke="black" stroke-width="0.4684" stroke-miterlimit="10" stroke-linecap="round" stroke-linejoin="round"/>
<path d="M165.028 74.264L157.842 75.4657C157.842 75.4657 158.379 73.236 161.316 72.7727C164.253 72.3094 165.028 74.264 165.028 74.264Z" fill="#000103"/>
<path d="M168.465 74.901L174.713 77.8107C174.713 77.8107 174.638 75.509 172.076 74.3364C169.514 73.1928 168.465 74.901 168.465 74.901Z" fill="#000103"/>
<path d="M166.915 87.061C166.915 87.061 164.253 88.0023 162.341 85.7432" stroke="black" stroke-width="0.4684" stroke-miterlimit="10" stroke-linecap="round" stroke-linejoin="round"/>
<path d="M167.702 70.9201C167.652 71.3978 167.952 71.8174 168.365 71.8753C168.777 71.9332 169.14 71.5859 169.19 71.1083C169.24 70.6306 168.94 70.2109 168.527 70.153C168.115 70.0951 167.752 70.4425 167.702 70.9201Z" fill="#FF413D"/>
<path d="M157.079 68.459C156.967 68.7485 152.893 78.3468 152.893 78.3468L151.568 68.8499L157.079 68.459Z" fill="#000103"/>
<path d="M147.344 77.6368C147.119 80.0399 148.619 82.2113 150.693 82.4719C152.768 82.7325 154.643 80.9953 154.867 78.5922C155.092 76.1891 153.593 74.0177 151.518 73.7571C149.444 73.4965 147.569 75.2337 147.344 77.6368Z" fill="#D48066"/>
<path d="M149.668 76.4499C149.668 76.4499 152.53 75.8419 152.53 79.2293" stroke="black" stroke-width="0.4684" stroke-miterlimit="10" stroke-linecap="round" stroke-linejoin="round"/>
<path d="M166.153 106.648L146.482 99.8728C146.482 99.8728 146.844 107.791 158.529 110.803C160.354 111.28 162.278 111.338 164.09 110.817C165.503 110.397 165.953 108.038 166.153 106.648Z" fill="#D48066"/>
<path d="M282.646 284.322H286.745V166.412H282.646V284.322Z" fill="#111D36"/>
<path d="M223.508 284.322H227.607V166.412H223.508V284.322Z" fill="#111D36"/>
<path d="M137.912 284.322H142.011V166.412H137.912V284.322Z" fill="#111D36"/>
<path d="M78.7747 284.322H82.8738L82.8738 166.412H78.7747L78.7747 284.322Z" fill="#111D36"/>
<path d="M118.87 171.979L300.194 171.979V160.832L118.87 160.832V171.979Z" fill="#24385B"/>
<path d="M66.1218 171.979H118.861V160.832H66.1218V171.979Z" fill="#111D36"/>
<path d="M180.074 161.239H209.705V157.358H180.074C179.149 157.358 178.399 158.227 178.399 159.299C178.399 160.384 179.149 161.239 180.074 161.239Z" fill="#162123"/>
<path d="M205.819 161.239H248.372C250.634 161.239 252.621 159.487 253.221 156.968L261.619 122.036C261.932 120.748 261.095 119.488 259.945 119.488H216.891C215.954 119.488 215.129 120.226 214.892 121.283L205.819 161.239Z" fill="#273237"/>
<path d="M232.213 141.174C232.213 143.548 233.875 145.473 235.925 145.473C237.974 145.473 239.637 143.548 239.637 141.174C239.637 138.8 237.974 136.874 235.925 136.874C233.875 136.874 232.213 138.8 232.213 141.174Z" fill="white"/>
<path d="M351 284.244H4.29907" stroke="#213033" stroke-width="1.0158" stroke-miterlimit="10"/>
</svg>
